<svg xmlns="http://www.w3.org/2000/svg" viewBox="0 0 512 512">
    <path d="M0 457.534a28.176 28.176 0 013.619-13.771L231.724 41.137a28.694 28.694 0 0125.07-14.654 29.042 29.042 0 0125.159 14.654l226.428 402.714A27.528 27.528 0 01512 457.534c0 15.457-12.526 27.983-27.983 27.983H27.983C12.526 485.517 0 472.991 0 457.534z" fill="#fdb62f"/>
    <path d="M508.381 443.851L365.021 188.91a560.467 560.467 0 01-257.766 296.607h376.761c15.457 0 27.983-12.526 27.983-27.983a27.527 27.527 0 00-3.618-13.683z" fill="#ffa230"/>
    <g fill="#de4c3c">
        <path d="M194.207 353.103h-17.655v26.483h-15.448l15.448-68.679-17.655-3.884-17.655 79.448a8.844 8.844 0 001.766 7.503 8.816 8.816 0 007.062 3.266h26.483v17.655h17.655V397.24h8.828v-17.655h-8.828v-26.482zM256 308.966c-19.5 0-35.31 15.81-35.31 35.31v35.31c0 19.5 15.81 35.31 35.31 35.31s35.31-15.81 35.31-35.31v-35.31c0-19.5-15.81-35.31-35.31-35.31zm17.655 70.62c0 9.754-7.901 17.655-17.655 17.655s-17.655-7.901-17.655-17.655v-35.31c0-9.754 7.901-17.655 17.655-17.655s17.655 7.901 17.655 17.655v35.31zM370.759 379.586h-8.828v-26.483h-17.655v26.483h-15.448l15.448-68.679-17.655-3.884-17.655 79.448a8.844 8.844 0 001.766 7.503 8.816 8.816 0 007.062 3.266h26.483v17.655h17.655V397.24h8.828v-17.654zM247.172 141.241h17.655v88.276h-17.655zM247.172 247.172h17.655v17.655h-17.655z"/>
    </g>
</svg>
