<svg xmlns="http://www.w3.org/2000/svg" xmlns:xlink="http://www.w3.org/1999/xlink" viewBox="0 0 640 640"><defs><path d="M413.48 264.2c-7.59-7.59-7.59-19.89 0-27.47 27.92-27.93 46.78-63.17 54.52-101.9 2.1-10.52 12.33-17.34 22.86-15.24 10.52 2.1 17.34 12.34 15.24 22.86-9.25 46.28-31.78 88.38-65.14 121.75-3.8 3.79-8.77 5.69-13.74 5.69-4.98 0-9.95-1.9-13.74-5.69z" id="a"/><path d="M413.48 264.2c3.79 3.79 8.76 5.69 13.74 5.69 4.97 0 9.94-1.9 13.73-5.69 23.11-23.12 41.02-50.42 52.92-80.39-5.36 5.36-32.16 32.15-80.39 80.39z" id="b"/><path d="M175.72 634.31C162.49 621.07 56.6 515.19 43.37 501.96c-7.59-7.59-7.59-19.89 0-27.48L347.3 170.55c3.65-3.65 8.59-5.69 13.74-5.69s10.09 2.04 13.73 5.69c13.24 13.23 119.12 119.11 132.36 132.35 7.58 7.59 7.58 19.89 0 27.47L203.19 634.31a19.362 19.362 0 01-13.73 5.69c-4.98 0-9.95-1.9-13.74-5.69z" id="c"/><path d="M440.95 236.72L109.54 568.13l66.18 66.18c3.79 3.79 8.77 5.69 13.74 5.69 4.97 0 9.94-1.9 13.73-5.69 30.4-30.39 273.55-273.54 303.94-303.94 7.59-7.58 7.59-19.88 0-27.47l-66.18-66.18z" id="d"/><path d="M180.04 301.77c-13.17 0-23.86 10.69-23.86 23.86v15.91c0 13.17 10.69 23.87 23.86 23.87h302.28c13.17 0 23.86-10.7 23.86-23.87v-15.91c0-13.17-10.69-23.86-23.86-23.86H180.04z" id="e"/><path d="M299.36 484.72c0 13.18 10.69 23.87 23.87 23.87h15.91c13.17 0 23.86-10.69 23.86-23.87V182.45c0-13.17-10.69-23.86-23.86-23.86h-15.91c-13.18 0-23.87 10.69-23.87 23.86v302.27z" id="f"/><path d="M498.94 69.67c-10.55-1.95-17.52-12.08-15.57-22.63.58-3.12 5.19-28.03 5.76-31.14C491.09 5.35 501.21-1.62 511.77.33c10.55 1.95 17.52 12.08 15.57 22.64-.57 3.11-5.18 28.02-5.76 31.14-1.73 9.35-9.9 15.89-19.08 15.89-1.18 0-2.36-.1-3.56-.33z" id="g"/><path d="M540.79 96.84c-6.08-8.84-3.84-20.94 5-27.02 2.61-1.79 23.48-16.15 26.09-17.94 8.85-6.08 20.94-3.85 27.02 4.99 6.08 8.84 3.84 20.94-5 27.02-2.61 1.79-23.48 16.15-26.09 17.95-3.36 2.31-7.2 3.42-10.99 3.42a19.44 19.44 0 01-16.03-8.42z" id="h"/><path d="M423.12 75.07c-1.79-2.61-16.15-23.49-17.95-26.1-6.08-8.84-3.84-20.93 5-27.01 8.84-6.08 20.94-3.85 27.02 4.99 1.79 2.61 16.15 23.49 17.94 26.1 6.08 8.84 3.85 20.93-4.99 27.01-3.37 2.32-7.2 3.43-11 3.43-6.18 0-12.25-2.95-16.02-8.42z" id="i"/></defs><use xlink:href="#a" fill="#c8c6cd"/><use xlink:href="#a" fill-opacity="0" stroke="#000" stroke-opacity="0"/><use xlink:href="#b" fill="#aeadb3"/><use xlink:href="#b" fill-opacity="0" stroke="#000" stroke-opacity="0"/><use xlink:href="#c" fill="#fd3426"/><use xlink:href="#c" fill-opacity="0" stroke="#000" stroke-opacity="0"/><use xlink:href="#d" fill="#c81019"/><use xlink:href="#d" fill-opacity="0" stroke="#000" stroke-opacity="0"/><use xlink:href="#e" fill="#4caf50"/><use xlink:href="#e" fill-opacity="0" stroke="#000" stroke-opacity="0"/><g><use xlink:href="#f" fill="#4caf50"/><use xlink:href="#f" fill-opacity="0" stroke="#000" stroke-opacity="0"/></g><g><use xlink:href="#g" fill="#fe8821"/><use xlink:href="#g" fill-opacity="0" stroke="#000" stroke-opacity="0"/></g><g><use xlink:href="#h" fill="#fe8821"/><use xlink:href="#h" fill-opacity="0" stroke="#000" stroke-opacity="0"/></g><g><use xlink:href="#i" fill="#fe8821"/><use xlink:href="#i" fill-opacity="0" stroke="#000" stroke-opacity="0"/></g></svg>