<svg xmlns="http://www.w3.org/2000/svg" viewBox="0 0 512 512">
    <path d="M447.912 105.931a381.865 381.865 0 00-23.746-52.966A316.577 316.577 0 00393.799 6.62 17.617 17.617 0 00379.94-.001H132.061a17.615 17.615 0 00-13.859 6.621 316.559 316.559 0 00-30.367 46.346 392.455 392.455 0 00-23.746 52.966 498.555 498.555 0 00-27.278 123.586c-1.5 16.508-1.5 26.483-1.5 26.483s0 9.975 1.5 26.483A498.555 498.555 0 0064.089 406.07a381.983 381.983 0 0023.746 52.966 316.496 316.496 0 0030.367 46.345 17.617 17.617 0 0013.859 6.621H379.94a17.617 17.617 0 0013.859-6.621 316.496 316.496 0 0030.367-46.345 381.759 381.759 0 0023.746-52.966 498.555 498.555 0 0027.278-123.586c1.5-16.508 1.5-26.483 1.5-26.483s0-9.975-1.5-26.483a498.573 498.573 0 00-27.278-123.587z" fill="#936642"/>
    <path d="M476.69 256s0 9.975-1.5 26.483H36.811c-1.5-16.508-1.5-26.483-1.5-26.483s0-9.975 1.5-26.483H475.19c1.5 16.508 1.5 26.483 1.5 26.483z" fill="#c9ced1"/>
    <path d="M152.895 105.931a676.45 676.45 0 00-19.421 123.586H36.811a498.555 498.555 0 0127.278-123.586h88.806z" fill="#935847"/>
    <path d="M447.912 105.931H64.089a392.705 392.705 0 0123.746-52.966h336.332a381.977 381.977 0 0123.745 52.966z" fill="#f6db6d"/>
    <g fill="#935847">
        <path d="M194.207 0a375.784 375.784 0 00-24.806 52.966H87.835a316.496 316.496 0 0130.367-46.345A17.617 17.617 0 01132.061 0h62.146zM342.599 52.966H256V0h61.793a375.56 375.56 0 0124.806 52.966zM152.895 406.069H64.089a498.51 498.51 0 01-27.278-123.586h96.663a676.45 676.45 0 0019.421 123.586zM342.599 459.035a375.784 375.784 0 01-24.806 52.966H256v-52.966h86.599zM194.207 512h-62.146a17.617 17.617 0 01-13.859-6.621 316.577 316.577 0 01-30.367-46.345h81.567A375.615 375.615 0 00194.207 512z"/>
    </g>
    <g fill="#f6db6d">
        <path d="M447.912 406.069a381.865 381.865 0 01-23.746 52.966H87.835a381.759 381.759 0 01-23.746-52.966h383.823zM476.69 256s0 9.975-1.5 26.483H36.811c-1.5-16.508-1.5-26.483-1.5-26.483s0-9.975 1.5-26.483H475.19c1.5 16.508 1.5 26.483 1.5 26.483z"/>
    </g>
    <g fill="#935847">
        <path d="M378.527 229.518H256V105.931h103.106a676.546 676.546 0 0119.421 123.587zM378.527 282.483a676.535 676.535 0 01-19.421 123.586H256V282.483h122.527z"/>
    </g>
</svg>
