<svg viewBox="1 1 512 512" xmlns="http://www.w3.org/2000/svg"><path d="M256 8a248 248 0 110 496 248 248 0 010-496zm0 0" fill="#95adc0"/><path d="M104 256c0-121 86-221 200-244a248 248 0 100 488 249 249 0 01-200-244zm0 0" fill="#8095a6"/><path d="M280 192l80-48c0 72-24 80-24 80zm0 0M232 192l-56 32s-24-8-24-80zm0 0" fill="#f2f2f2"/><path d="M280 248h16v16h-16zm0 0M216 248h16v16h-16zm0 0M350 78a201 201 0 00-188 0l-7-13a216 216 0 01202 0zm0 0M448 216h16v15h-16zm0 0" fill="#fff"/><g fill="#231f20"><path d="M15 256A239 239 0 01256 15c47 0 93 14 132 40l8-13A255 255 0 0075 75a255 255 0 0042 396l8-13A240 240 0 0115 256zm0 0M485 142c-17-34-42-65-72-88l-9 12a243 243 0 0193 190 239 239 0 01-241 241c-41 0-81-10-117-30l-7 13a256 256 0 00353-338zm0 0"/><path d="M173 231l4 1 70-40-103-62v14c0 31 5 55 13 71 7 12 15 16 16 16zm44-39l-41 23c-4-4-14-18-16-58zm0 0M335 232l3-1c2 0 10-4 17-16 8-16 13-40 13-71v-14l-103 62zm1-17l-41-23 57-35c-2 40-12 54-16 58zm0 0M142 428l19-18c11 8 23 14 36 19l-10 21 13 6 12-22c11 3 24 5 36 6v24h16v-24c12-1 25-3 37-6l12 22 14-8-12-19c11-4 22-9 32-16l23 23 10-10-21-22c12-9 24-21 33-34l18 18 10-10-20-20c14-23 22-50 24-78h16v-16h-48v16h17c-2 24-8 47-20 67l-14-15-11 11 17 17c-9 13-20 24-33 34l-13-14-11 11 12 11c-9 6-18 10-28 14l-13-23-13 7 11 20c-9 3-19 4-29 5v-25h-16v25c-10-1-20-2-30-5l11-21-13-7-12 24c-12-5-22-10-32-17l16-16-11-11-18 18c-10-9-20-19-28-30l17-17-11-11-14 15c-12-20-18-43-20-67h17v-16H72v16h16c2 28 10 55 24 78l-20 20 10 10 18-18c8 12 18 22 29 31l-17 17zm0 0M248 248h16v16h-16zm0 0M136 80h16v15h-16zm0 0M360 80h16v15h-16zm0 0M448 184h16v15h-16zm0 0M56 192h16v15H56zm0 0M40 208h16v15H40zm0 0M56 224h16v15H56zm0 0"/></g></svg>
