<svg xmlns="http://www.w3.org/2000/svg" viewBox="175.7 78 490.6 436.9">
    <svg xmlns="http://www.w3.org/2000/svg" viewBox="0 0 400 860">
        <path fill="#f0db4f" d="M0 0h1052v1052H0z"/>
        <path fill="#323330" d="M966 801c-8-48-39-88-132-126-32-15-68-25-79-50-3-14-4-22-1-30 6-28 40-37 66-29 17 6 33 19 43 40l77-50-25-34c-28-30-65-46-124-45l-31 4c-30 8-58 23-75 44-50 57-36 156 25 196 60 45 147 55 159 97 10 52-38 68-86 62-36-7-56-25-77-58l-80 46c9 21 20 31 36 49 76 77 267 73 301-44 1-4 10-31 3-72zM572 484h-99v254c0 54 3 104-6 119-14 30-52 26-69 20-17-8-26-20-36-38l-6-8-79 49c13 27 32 51 58 66 37 22 87 29 140 17 34-10 64-31 80-62 22-41 17-91 17-147V484z"/>
    </svg>
    <svg xmlns="http://www.w3.org/2000/svg" viewBox="224.419 99.761 584.098 771.733">
        <path d="M536.9 99.9c6.8 5.2 12.7 11.6 19.2 17.2 58.7 55.4 112.5 116.6 155.8 184.9 41.9 66.1 74.101 139.2 88.4 216.4 7.899 42.3 10.5 85.699 5.899 128.5-2.099 17.9-5.199 35.8-10.899 52.9-8 24.8-18.5 48.9-32.9 70.7-12.4 18.8-27.9 35.6-45.8 49.2-19.7 14.9-42.2 25.8-65.6 33.3-29.101 9.3-59.601 13.9-90 16.4-36.301 2.699-72.801 3.199-109-1.4-41-5.1-81.7-16-118.2-35.7-33.8-18.2-63.5-44.899-82.6-78.5-22.1-38.4-29.4-83.9-25.9-127.8 3.6-46.5 18.4-91.6 38-133.7 17-36.2 37.8-70.5 60.899-103.1 19.7-27.6 40.9-54.1 64.101-78.9.399-.3 1.2-1 1.7-1.3-.4 20.9 1.6 41.9 7.6 62 6.1 20.5 16.4 39.8 30.1 56.3.801 1 1.4 2.4 2.9 2.601 29.7-22.3 57.8-47.3 79.7-77.4C533 321.4 548.199 285 554 246.9c7.699-49.3 1.1-100.6-17.1-147z" fill="#df4723" stroke="#df4723" stroke-width=".094"/>
    </svg>
</svg>
