<svg xmlns="http://www.w3.org/2000/svg" viewBox="0 0 512 512">
    <path fill="#a4c2f7" d="M12.8 256H256v243.2H12.8z"/>
    <g fill="#e3e7f2">
        <path d="M76.8 320v115.2l-64 64V256zM256 256v243.2l-64-64V320z"/>
    </g>
    <path fill="#fff" d="M76.8 320H192v115.2H76.8z"/>
    <path fill="#a4c2f7" d="M12.8 12.8H256V256H12.8z"/>
    <g fill="#e3e7f2">
        <path d="M76.8 76.8V192l-64 64V12.8zM256 12.8V256l-64-64V76.8z"/>
    </g>
    <path fill="#fff" d="M76.8 76.8H192V192H76.8z"/>
    <path fill="#a4c2f7" d="M256 256h243.2v243.2H256z"/>
    <g fill="#e3e7f2">
        <path d="M320 320v115.2l-64 64V256zM499.2 256v243.2l-64-64V320z"/>
    </g>
    <path fill="#fff" d="M320 320h115.2v115.2H320z"/>
    <path fill="#a4c2f7" d="M256 12.8h243.2V256H256z"/>
    <g fill="#e3e7f2">
        <path d="M499.2 12.8V256l-64-64V76.8zM320 76.8V192l-64 64V12.8z"/>
    </g>
    <path fill="#fff" d="M320 76.8h115.2V192H320z"/>
    <path d="M504.091.988A12.79 12.79 0 00499.2 0H12.8C5.742.028.028 5.742 0 12.8v486.4c.028 7.058 5.742 12.772 12.8 12.8h486.4c7.058-.028 12.772-5.742 12.8-12.8V12.8A12.852 12.852 0 00504.091.988zM204.8 429.9V325.3l38.4-38.4v181.4l-38.4-38.4zM307.2 82.1v104.6l-38.4 38.4V43.7l38.4 38.4zm115.2 97.1h-89.6V89.6h89.6v89.6zm-217.6 7.5V82.1l38.4-38.4v181.4l-38.4-38.4zm-25.6-7.5H89.6V89.6h89.6v89.6zm-97.1 25.6h104.6l38.4 38.4H43.7l38.4-38.4zm143 64l-38.4 38.4H82.1l-38.4-38.4h181.4zm-135.5 64h89.6v89.6H89.6v-89.6zm217.6-7.5v104.6l-38.4 38.4V286.9l38.4 38.4zm25.6 7.5h89.6v89.6h-89.6v-89.6zm97.1-25.6H325.3l-38.4-38.4h181.4l-38.4 38.4zm-143-64l38.4-38.4h104.6l38.4 38.4H286.9zM429.9 64H325.3l-38.4-38.4h181.4L429.9 64zm-243.2 0H82.1L43.7 25.6h181.4L186.7 64zM64 82.1v104.6l-38.4 38.4V43.7L64 82.1zm0 243.2v104.6l-38.4 38.4V286.9L64 325.3zM82.1 448h104.6l38.4 38.4H43.7L82.1 448zm243.2 0h104.6l38.4 38.4H286.9l38.4-38.4zM448 429.9V325.3l38.4-38.4v181.4L448 429.9zm0-243.2V82.1l38.4-38.4v181.4L448 186.7z" fill="#428dff"/>
</svg>
