<svg xmlns="http://www.w3.org/2000/svg" viewBox="0 0 512 512">
    <path d="M431.27 372.43a170.42 170.42 0 01-13.69 35l-161.08 20-161.05-20a170.42 170.42 0 01-13.69-35l174.755-20z" fill="#f5de46"/>
    <path d="M64.515 168.777L172.5 201.5v-158H27.622C16.509 43.5 7.5 52.454 7.5 63.5v28.755c0 35.196 23.144 66.258 57.015 76.522z" fill="#736e6e"/>
    <path d="M76.08 172.28l-11.56-3.5C30.64 158.51 7.5 127.45 7.5 92.25V63.5c0-11.05 9.01-20 20.12-20h20c-11.11 0-20.12 9.44-20.12 21.08v30.3c0 33.93 19.36 64.22 48.58 77.4z" fill="#5a5555"/>
    <path d="M447.485 168.777L339.5 201.5v-158h144.878c11.113 0 20.122 8.954 20.122 20v28.755c0 35.196-23.144 66.258-57.015 76.522z" fill="#736e6e"/>
    <path d="M172.5 43.5v158l-92.67-28.08c4.46-14.83 9.54-29.63 15.2-44.32 13.16-34.11 27.76-63.31 40.82-85.6zM432.89 173.2l-93.39 28.3v-158h37.39c13.13 22.48 27.84 51.97 41.1 86.4a624.298 624.298 0 0114.9 43.3z" fill="#5a5555"/>
    <path d="M437.06 327c0 1.47-.01 2.93-.04 4.39-.23 14.16-2.22 27.9-5.75 41.04H81.76a168.515 168.515 0 01-5.75-41.04c-.03-1.46-.04-2.92-.04-4.39 0-141.2 68.18-266.05 97.19-303.84 7.56-9.85 18.93-15.66 31.34-15.66h104c12.49 0 23.8 5.88 31.35 15.83 28.99 38.21 97.21 163.94 97.21 303.67z" fill="#9b9696"/>
    <path d="M417.58 407.43c-30.21 57.69-92.16 97.07-161.08 97.07-48.14 0-92.87-19.21-125.76-50.45-14.2-13.49-26.19-29.22-35.29-46.62z" fill="#736e6e"/>
    <path d="M125.45 407.43h-30a170.42 170.42 0 01-13.69-35h30a170.42 170.42 0 0013.69 35z" fill="#f3d332"/>
    <path d="M234.5 7.5c-12.41 0-23.78 5.81-31.34 15.66C174.15 60.95 105.97 185.8 105.97 327c0 1.47.01 2.93.04 4.39.23 14.16 2.22 27.9 5.75 41.04h-30a168.515 168.515 0 01-5.75-41.04c-.03-1.46-.04-2.92-.04-4.39 0-141.2 68.18-266.05 97.19-303.84 7.56-9.85 18.93-15.66 31.34-15.66h30z" fill="#736e6e"/>
    <path d="M271.47 503.87c-4.95.42-9.94.63-14.97.63-48.14 0-92.87-19.21-125.76-50.45-14.2-13.49-26.19-29.22-35.29-46.62h30c9.1 17.4 21.09 33.13 35.29 46.62 29.44 27.96 68.36 46.29 110.73 49.82z" fill="#5a5555"/>
    <path d="M256.5 268.5c-23.435 0-42.5-19.065-42.5-42.5s19.065-42.5 42.5-42.5S299 202.565 299 226s-19.065 42.5-42.5 42.5z" fill="#f5de46"/>
    <path d="M276.5 248.5c-23.43 0-42.5-19.07-42.5-42.5 0-6.57 1.5-12.79 4.16-18.34C223.88 194.52 214 209.13 214 226c0 23.43 19.07 42.5 42.5 42.5 16.87 0 31.48-9.88 38.34-24.16a42.326 42.326 0 01-18.34 4.16z" fill="#f3d332"/>
    <path d="M318.718 117.731l-27.537 47.7c-1.301 2.254-4.121 3.148-6.464 2.016-8.541-4.128-18.112-6.447-28.217-6.447s-19.676 2.319-28.217 6.446c-2.343 1.132-5.163.238-6.464-2.016l-27.537-47.7c-1.412-2.446-.532-5.597 1.969-6.911C214.27 101.355 234.769 96 256.5 96s42.23 5.355 60.249 14.82c2.501 1.313 3.381 4.465 1.969 6.911z" fill="#f5de46"/>
    <path d="M212.09 103.81l33.63 58.09c-6.14 1.02-12 2.92-17.44 5.55-2.34 1.13-5.16.23-6.46-2.02l-27.54-47.7c-1.41-2.45-.53-5.6 1.97-6.91a129.77 129.77 0 0115.84-7.01z" fill="#f3d332"/>
    <path d="M131.649 226.265l55.078-.002c2.603 0 4.787 1.995 4.978 4.59a64.67 64.67 0 008.526 27.66 64.673 64.673 0 0019.691 21.214c2.152 1.463 2.788 4.352 1.486 6.606l-27.541 47.698c-1.412 2.446-4.582 3.259-6.969 1.75-17.206-10.873-32.094-25.948-42.959-44.768-10.866-18.82-16.477-39.25-17.29-59.588-.113-2.821 2.176-5.16 5-5.16z" fill="#f5de46"/>
    <path d="M200.94 321.78l-7.07 12.25c-1.41 2.45-4.58 3.26-6.97 1.75-17.21-10.87-32.1-25.95-42.96-44.77-10.87-18.82-16.48-39.25-17.29-59.58-.11-2.83 2.18-5.16 5-5.16h15.29c1.44 18.72 6.99 37.41 17 54.74 9.59 16.61 22.31 30.31 37 40.77z" fill="#f3d332"/>
    <path d="M319.178 334.004l-27.541-47.698c-1.301-2.254-.666-5.143 1.486-6.606 7.845-5.333 14.639-12.463 19.691-21.214s7.83-18.2 8.526-27.66c.191-2.596 2.375-4.59 4.978-4.59l55.078.002c2.824 0 5.113 2.338 5 5.16-.813 20.338-6.425 40.768-17.29 59.588-10.866 18.82-25.753 33.894-42.959 44.768-2.388 1.509-5.557.696-6.969-1.75z" fill="#f5de46"/>
    <path d="M340.01 325.64c-4.41 3.7-9.04 7.07-13.86 10.11-2.39 1.51-5.56.7-6.97-1.75l-27.54-47.69c-1.3-2.26-.67-5.15 1.48-6.61 5.01-3.4 9.59-7.54 13.55-12.36z" fill="#f3d332"/>
    <g>
        <path d="M484.378 36H357.649c-4.354-6.844-8.357-12.632-11.825-17.203C336.761 6.852 323.156 0 308.5 0h-104c-14.628 0-28.221 6.778-37.289 18.593-3.802 4.952-7.878 10.838-12.083 17.407H27.622C12.392 36 0 48.337 0 63.5v28.755c0 18.896 5.979 36.909 17.292 52.092 11.306 15.174 26.883 26.104 45.049 31.608l27.326 8.281C77.802 225.425 68.47 274.504 68.47 327c-.086 15.99 1.889 31.963 6.047 47.377 3.372 12.582 8.18 24.874 14.289 36.534l.002.003c9.415 17.998 21.784 34.341 36.767 48.573C161.226 493.351 207.723 512 256.5 512c34.803 0 69.025-9.684 98.971-28.004 29.34-17.949 53.113-43.222 68.752-73.084l.001-.001a178.29 178.29 0 0014.286-36.526c4.168-15.429 6.135-31.412 6.051-47.385 0-45.581-7.368-94.24-21.502-142.984l26.601-8.061c18.166-5.505 33.743-16.435 45.049-31.608C506.021 129.164 512 111.151 512 92.255V63.5c0-15.163-12.392-27.5-27.622-27.5zM256.5 497c-44.916 0-87.743-17.185-120.595-48.388-10.67-10.137-19.896-21.429-27.531-33.683h36.759c4.143 0 7.5-3.357 7.5-7.5s-3.357-7.5-7.5-7.5h-45.075a163.92 163.92 0 01-8.199-20h329.312a163.756 163.756 0 01-8.198 20h-232.84c-4.143 0-7.5 3.357-7.5 7.5s3.357 7.5 7.5 7.5h224.512C373.278 465.159 316.456 497 256.5 497zm173.021-165.73a161.447 161.447 0 01-4.107 33.66H87.617c-2.878-12.394-4.215-25.165-4.147-37.93 0-81.223 23.093-154.22 42.465-201.154a7.5 7.5 0 00-4.071-9.794 7.497 7.497 0 00-9.794 4.071 617.309 617.309 0 00-18.065 49.754L66.69 161.6C35.772 152.231 15 124.363 15 92.255V63.5C15 56.607 20.662 51 27.622 51h118.373c-6.595 11.343-13.25 23.876-19.445 36.719a7.5 7.5 0 0013.51 6.518c12.717-26.361 27.315-51.225 39.05-66.51C185.317 19.639 194.571 15 204.5 15h104c9.923 0 19.172 4.688 25.375 12.863 14.368 18.938 38.299 59.616 58.453 111.928 17.271 44.405 38.241 116.722 37.193 191.479zM497 92.255c0 32.108-20.772 59.977-51.69 69.345l-26.611 8.064a617.256 617.256 0 00-12.373-35.265C393.598 101.364 379.324 72.743 366.737 51h117.641C491.338 51 497 56.607 497 63.5z"/>
        <path d="M227.577 275.687C209.95 265.375 199 246.336 199 226c.349-4.203-3.265-8.089-7.49-8H126.5c-4.339-.016-7.751 3.69-7.5 8 0 23.98 6.3 47.615 18.219 68.35 12.049 20.944 29.446 38.43 50.311 50.563 3.459 2.1 8.313.802 10.266-2.733l32.49-56.27a7.5 7.5 0 00-2.709-10.223zm-38.894 52.277a123.437 123.437 0 01-38.461-41.093c-9.451-16.44-14.934-34.933-16.021-53.871h50.143c2.013 20.488 12.776 39.331 29.415 51.534zM299 226c0-23.435-19.065-42.5-42.5-42.5S214 202.565 214 226s19.065 42.5 42.5 42.5S299 249.435 299 226zm-42.5 27.5c-15.163 0-27.5-12.337-27.5-27.5s12.337-27.5 27.5-27.5S284 210.837 284 226s-12.337 27.5-27.5 27.5zM217.725 173.34c2.078 3.612 6.704 4.794 10.226 2.756a57.316 57.316 0 0114.204-5.785 7.5 7.5 0 005.392-9.134 7.498 7.498 0 00-9.134-5.392 72.047 72.047 0 00-11.243 3.913l-25.076-43.439c16.83-8.366 35.488-12.759 54.407-12.759s37.577 4.393 54.407 12.759l-25.077 43.439a72.172 72.172 0 00-8.376-3.11 7.5 7.5 0 10-4.34 14.358 57.47 57.47 0 0111.935 5.15 7.498 7.498 0 0010.227-2.756l32.489-56.279c2.084-3.45.783-8.3-2.746-10.246C304.256 94.833 280.563 88.5 256.5 88.5s-47.756 6.333-68.519 18.314c-3.53 1.946-4.83 6.796-2.746 10.246zM386.5 218h-65.01c-4.245-.111-7.874 3.779-7.49 8 0 20.336-10.95 39.375-28.577 49.687a7.5 7.5 0 00-2.708 10.224l32.49 56.27c1.953 3.536 6.807 4.833 10.266 2.733a138.196 138.196 0 0025.329-18.927 7.501 7.501 0 00-10.295-10.911 123.232 123.232 0 01-16.188 12.887l-25.076-43.429c16.639-12.203 27.402-31.046 29.415-51.534h50.143c-1.087 18.938-6.569 37.431-16.02 53.87-3.138 3.95-3.863 9.934 1.017 12.837 4.963 3.078 10.031-.587 11.986-5.359C387.7 273.615 394 249.98 394 226c.251-4.31-3.161-8.016-7.5-8z"/>
    </g>
</svg>
