<svg xmlns="http://www.w3.org/2000/svg" xmlns:xlink="http://www.w3.org/1999/xlink" viewBox="0 0 640 640"><defs><path d="M352.87 14.38c48.68 45.94 93.29 96.7 129.2 153.34 34.75 54.81 61.45 115.44 73.31 179.46 6.55 35.08 8.71 71.07 4.89 106.56-1.74 14.85-4.31 29.69-9.03 43.87-6.64 20.57-15.35 40.56-27.29 58.64-10.28 15.59-23.14 29.52-37.98 40.8-16.34 12.35-35 21.39-54.4 27.61-24.14 7.72-49.43 11.53-74.64 13.6-30.1 2.24-60.37 2.66-90.39-1.16-34-4.23-67.76-13.27-98.03-29.6-28.03-15.1-52.66-37.24-68.5-65.1-18.32-31.85-24.38-69.58-21.48-105.99 2.99-38.56 15.26-75.96 31.52-110.88 14.1-30.02 31.34-58.46 50.5-85.5 16.34-22.89 33.92-44.86 53.16-65.43.33-.25 1-.83 1.41-1.08-.33 17.33 1.33 34.75 6.3 51.42 5.06 17 13.6 33.01 24.96 46.69.67.83 1.17 1.99 2.41 2.16 24.63-18.5 47.93-39.23 66.09-64.19 18.83-25.79 31.43-55.98 36.25-87.58 6.38-40.88.91-83.43-14.19-121.9 5.64 4.31 10.54 9.62 15.93 14.26z" id="a"/><path d="M180.04 301.77c-13.17 0-23.86 10.69-23.86 23.86v15.91c0 13.17 10.69 23.87 23.86 23.87h302.28c13.17 0 23.86-10.7 23.86-23.87v-15.91c0-13.17-10.69-23.86-23.86-23.86H180.04z" id="b"/><path d="M299.36 484.72c0 13.18 10.69 23.87 23.87 23.87h15.91c13.17 0 23.86-10.69 23.86-23.87V182.45c0-13.17-10.69-23.86-23.86-23.86h-15.91c-13.18 0-23.87 10.69-23.87 23.86v302.27z" id="c"/></defs><use xlink:href="#a" fill="#df4723"/><use xlink:href="#a" fill-opacity="0" stroke="#df4723" stroke-width=".09"/><use xlink:href="#b" fill="#4caf50"/><use xlink:href="#b" fill-opacity="0" stroke="#000" stroke-opacity="0"/><g><use xlink:href="#c" fill="#4caf50"/><use xlink:href="#c" fill-opacity="0" stroke="#000" stroke-opacity="0"/></g></svg>