<svg xmlns="http://www.w3.org/2000/svg" viewBox="0 0 400 400">
    <path fill="#007acc" d="M0 200V0h400v400H0"/>
    <path fill="#fff" d="M88 201v16h52v148h37V217h52v-16l-1-16-70-1H88v17zm233-17c11 2 18 7 25 14 4 4 10 11 10 13l-28 19-3-4c-6-7-11-11-19-11-12-1-20 5-20 16 0 3 0 5 2 7 2 6 7 9 23 16 28 12 41 20 48 32 9 13 11 33 5 49s-22 28-44 31c-7 2-23 1-31 0-16-3-31-11-41-21l-10-16 4-2 15-9 11-6 3 3c3 5 11 12 15 15 13 6 30 6 39-2 4-4 5-7 5-12s-1-7-3-10c-3-5-9-8-27-16-21-9-30-15-38-23-5-6-9-14-11-20s-2-20-1-26c5-20 20-34 41-38 7-2 24-1 31 1h-1z"/>
    <svg xmlns="http://www.w3.org/2000/svg" viewBox="0 0 512.002 512.002">
        <path d="M341.774 215.912a15.49 15.49 0 01-10.989-4.552c-6.069-6.069-6.07-15.909-.001-21.979 22.341-22.343 37.423-50.531 43.617-81.514 1.683-8.418 9.862-13.877 18.287-12.194 8.416 1.683 13.877 9.869 12.194 18.287-7.401 37.022-25.421 70.702-52.116 97.399a15.501 15.501 0 01-10.992 4.553z" fill="#c8c6cd"/>
        <path d="M330.784 211.36a15.496 15.496 0 0010.99 4.552c3.978 0 7.956-1.518 10.99-4.553 18.489-18.491 32.812-40.332 42.333-64.313l-64.313 64.314z" fill="#aeadb3"/>
        <path d="M151.566 512.001a15.485 15.485 0 01-10.989-4.553L34.694 401.567c-6.07-6.07-6.07-15.91 0-21.979l243.149-243.149a15.54 15.54 0 0121.978 0l105.881 105.882c6.07 6.07 6.07 15.91 0 21.979L162.554 507.448a15.481 15.481 0 01-10.988 4.553z" fill="#fd3426"/>
        <g fill="#fe8821">
            <path d="M401.999 56.002c-.938 0-1.888-.085-2.844-.262-8.44-1.561-14.017-9.67-12.455-18.111l4.609-24.912C392.871 4.277 400.973-1.3 409.42.262c8.44 1.561 14.017 9.67 12.455 18.111l-4.609 24.912c-1.387 7.484-7.921 12.717-15.267 12.717zM445.457 84.206c-4.944 0-9.806-2.354-12.82-6.736-4.864-7.073-3.074-16.749 3.998-21.613l20.874-14.356c7.073-4.864 16.748-3.074 21.613 3.998 4.864 7.073 3.074 16.749-3.998 21.613L454.25 81.469a15.477 15.477 0 01-8.793 2.737zM351.317 66.789c-4.944 0-9.806-2.354-12.82-6.736l-14.356-20.874c-4.864-7.073-3.074-16.749 3.998-21.613s16.748-3.074 21.613 3.998l14.356 20.874c4.864 7.073 3.074 16.749-3.998 21.613a15.463 15.463 0 01-8.793 2.738z"/>
        </g>
        <path d="M405.705 242.321l-52.941-52.941L87.636 454.508l52.941 52.941a15.494 15.494 0 0010.989 4.553c3.978 0 7.955-1.517 10.99-4.553l243.149-243.148c6.07-6.07 6.07-15.91 0-21.98z" fill="#c81019"/>
    </svg>

</svg>
