<svg xmlns="http://www.w3.org/2000/svg" viewBox="0 0 400 400">
    <path fill="#007acc" d="M0 200V0h400v400H0"/>
    <path fill="#fff" d="M88 201v16h52v148h37V217h52v-16l-1-16-70-1H88v17zm233-17c11 2 18 7 25 14 4 4 10 11 10 13l-28 19-3-4c-6-7-11-11-19-11-12-1-20 5-20 16 0 3 0 5 2 7 2 6 7 9 23 16 28 12 41 20 48 32 9 13 11 33 5 49s-22 28-44 31c-7 2-23 1-31 0-16-3-31-11-41-21l-10-16 4-2 15-9 11-6 3 3c3 5 11 12 15 15 13 6 30 6 39-2 4-4 5-7 5-12s-1-7-3-10c-3-5-9-8-27-16-21-9-30-15-38-23-5-6-9-14-11-20s-2-20-1-26c5-20 20-34 41-38 7-2 24-1 31 1h-1z"/>
    <svg xmlns="http://www.w3.org/2000/svg" preserveAspectRatio="xMidYMid" viewBox="0 0 256 244">
        <path fill="#764ABC" d="M177 170c10-1 17-9 17-19-1-10-9-18-19-18a18 18 0 00-13 31c-11 22-28 38-53 51-17 9-35 13-53 10-15-2-26-8-33-19a48 48 0 01-3-50c6-13 16-22 22-26l-4-17c-47 34-42 81-28 102 11 17 33 27 57 27 6 0 13-1 19-3 42-8 73-32 91-69zm58-41c-25-29-62-45-103-45h-5c-3-5-10-9-16-9h-1a18 18 0 001 36c7 0 14-5 16-11h6c25 0 48 7 69 21 17 11 28 25 35 42 6 14 5 27-1 38-9 18-24 27-44 27-13 0-26-4-32-7l-15 12c14 6 28 10 42 10 31 0 55-17 63-34 10-19 9-52-15-80zM69 175c1 10 9 18 18 18h1a18 18 0 00-1-37l-2 1c-14-22-19-47-17-73 1-19 7-36 19-50 9-12 28-18 40-18 34-1 49 42 50 59l16 5c-4-53-36-80-67-80-30 0-57 21-68 52-15 42-5 82 14 114-2 2-3 6-3 9z"/>
    </svg>
</svg>
