<svg xmlns="http://www.w3.org/2000/svg" viewBox="0 0 512 512">
    <path d="M494.345 282.483v-52.966c9.739-.029 17.627-7.916 17.655-17.655v-52.966c-.028-9.739-7.916-17.627-17.655-17.655V88.276c9.739-.029 17.627-7.916 17.655-17.655V17.655C511.972 7.916 504.084.028 494.345 0h-79.448c-9.739.028-17.627 7.916-17.655 17.655h-52.966C344.247 7.916 336.36.028 326.621 0H17.655C7.916.028.028 7.916 0 17.655v52.966c.029 9.739 7.916 17.627 17.655 17.655v52.966C7.916 141.27.028 149.158 0 158.897v52.966c.029 9.739 7.916 17.627 17.655 17.655v52.966C7.916 282.511.028 290.399 0 300.138v52.966c.029 9.739 7.916 17.626 17.655 17.655v52.966C7.916 423.753.028 431.64 0 441.379v52.966c.029 9.739 7.916 17.627 17.655 17.655h79.448c9.739-.029 17.627-7.916 17.655-17.655h52.966c.029 9.739 7.916 17.627 17.655 17.655h308.966c9.739-.029 17.627-7.916 17.655-17.655v-52.966c-.028-9.739-7.916-17.627-17.655-17.655v-52.966c9.739-.029 17.627-7.916 17.655-17.655v-52.966c-.028-9.738-7.916-17.626-17.655-17.654z" fill="#fccc88"/>
    <path d="M17.655 0h308.966c9.751 0 17.655 7.904 17.655 17.655v52.966c0 9.751-7.904 17.655-17.655 17.655H17.655C7.904 88.276 0 80.371 0 70.621V17.655C0 7.904 7.904 0 17.655 0z" fill="#cd4f38"/>
    <path d="M414.897 0h79.448C504.095 0 512 7.904 512 17.655v52.966c0 9.751-7.905 17.655-17.655 17.655h-79.448c-9.751 0-17.655-7.904-17.655-17.655V17.655C397.241 7.904 405.146 0 414.897 0z" fill="#dc6c33"/>
    <path d="M185.379 423.724h308.966c9.751 0 17.655 7.905 17.655 17.655v52.966c0 9.751-7.905 17.655-17.655 17.655H185.379c-9.751 0-17.655-7.905-17.655-17.655v-52.966c0-9.75 7.905-17.655 17.655-17.655z" fill="#cd4f38"/>
    <path d="M17.655 423.724h79.448c9.751 0 17.655 7.905 17.655 17.655v52.966c0 9.751-7.904 17.655-17.655 17.655H17.655C7.904 512 0 504.095 0 494.345v-52.966c0-9.75 7.904-17.655 17.655-17.655zM17.655 282.483h308.966c9.751 0 17.655 7.905 17.655 17.655v52.966c0 9.751-7.904 17.655-17.655 17.655H17.655C7.904 370.759 0 362.854 0 353.103v-52.966c0-9.75 7.904-17.654 17.655-17.654z" fill="#dc6c33"/>
    <path d="M414.897 282.483h79.448c9.751 0 17.655 7.905 17.655 17.655v52.966c0 9.751-7.905 17.655-17.655 17.655h-79.448c-9.751 0-17.655-7.904-17.655-17.655v-52.966c-.001-9.751 7.904-17.655 17.655-17.655z" fill="#cd4f38"/>
    <path d="M185.379 141.241h308.966c9.751 0 17.655 7.904 17.655 17.655v52.966c0 9.751-7.905 17.655-17.655 17.655H185.379c-9.751 0-17.655-7.904-17.655-17.655v-52.966c0-9.75 7.905-17.655 17.655-17.655z" fill="#ed634c"/>
    <path d="M17.655 141.241h79.448c9.751 0 17.655 7.904 17.655 17.655v52.966c0 9.751-7.904 17.655-17.655 17.655H17.655C7.904 229.517 0 221.613 0 211.862v-52.966c0-9.75 7.904-17.655 17.655-17.655z" fill="#ec9130"/>
    <path d="M17.655 0h308.966c9.751 0 17.655 7.904 17.655 17.655v52.966c0 9.751-7.904 17.655-17.655 17.655H17.655C7.904 88.276 0 80.371 0 70.621V17.655C0 7.904 7.904 0 17.655 0z" fill="#cd4f38"/>
    <path d="M414.897 0h79.448C504.095 0 512 7.904 512 17.655v52.966c0 9.751-7.905 17.655-17.655 17.655h-79.448c-9.751 0-17.655-7.904-17.655-17.655V17.655C397.241 7.904 405.146 0 414.897 0z" fill="#ec9130"/>
    <path d="M185.379 423.724h308.966c9.751 0 17.655 7.905 17.655 17.655v52.966c0 9.751-7.905 17.655-17.655 17.655H185.379c-9.751 0-17.655-7.905-17.655-17.655v-52.966c0-9.75 7.905-17.655 17.655-17.655z" fill="#cd4f38"/>
    <path d="M17.655 423.724h79.448c9.751 0 17.655 7.905 17.655 17.655v52.966c0 9.751-7.904 17.655-17.655 17.655H17.655C7.904 512 0 504.095 0 494.345v-52.966c0-9.75 7.904-17.655 17.655-17.655zM17.655 282.483h308.966c9.751 0 17.655 7.905 17.655 17.655v52.966c0 9.751-7.904 17.655-17.655 17.655H17.655C7.904 370.759 0 362.854 0 353.103v-52.966c0-9.75 7.904-17.654 17.655-17.654z" fill="#dc6c33"/>
    <path d="M414.897 282.483h79.448c9.751 0 17.655 7.905 17.655 17.655v52.966c0 9.751-7.905 17.655-17.655 17.655h-79.448c-9.751 0-17.655-7.904-17.655-17.655v-52.966c-.001-9.751 7.904-17.655 17.655-17.655z" fill="#cd4f38"/>
    <path d="M185.379 141.241h308.966c9.751 0 17.655 7.904 17.655 17.655v52.966c0 9.751-7.905 17.655-17.655 17.655H185.379c-9.751 0-17.655-7.904-17.655-17.655v-52.966c0-9.75 7.905-17.655 17.655-17.655z" fill="#dc6c33"/>
    <path d="M17.655 141.241h79.448c9.751 0 17.655 7.904 17.655 17.655v52.966c0 9.751-7.904 17.655-17.655 17.655H17.655C7.904 229.517 0 221.613 0 211.862v-52.966c0-9.75 7.904-17.655 17.655-17.655z" fill="#ec9130"/>
</svg>
